# xmcd
#
# Track frame offsets:
#	150
#	12734
#	18757
#	31757
#	32236
#	37344
#	41301
#	42058
#	59829
#	62943
#	70210
#	75646
#	79265
#	84434
#	88870
#	96288
#	108900
#	117823
#	129637
#	143615
#	145598
#	164685
#	171587
#	174284
#	200597
#	203546
#	210871
#	217243
#	221985
#	223906
#	224538
#	229467
#	234709
#	237102
#	242734
#	243527
#	246091
#	247570
#	255938
#	258845
#	268446
#	269729
#	273259
#	276364
#
# Disc length: 3750 seconds
#
# Revision: 1
# Processed by: cddbd v1.5.2PL0 Copyright (c) Steve Scherf et al.
# Submitted via: audiograbber 1.83.01
#
DISCID=9f0ea42c
DTITLE=Woody Mann - Masterpieces of Country Blues Guitar - Cd 3
DYEAR=1900
DGENRE=Blues tabs
TTITLE0=Blind Blake performs Chump Man Blues
TTITLE1=Woody performs Chump Man Blues
TTITLE2=Introduction to lesson
TTITLE3=Tuning
TTITLE4=Teaching of first two bars and rhythmic pattern
TTITLE5=Playing of first bar
TTITLE6=Playing of first two bars
TTITLE7=Teaching of third to twelfth bars
TTITLE8=Playing Chump Man Blues slowly
TTITLE9=Teaching of alternate tenth bar
TTITLE10=Playing of ninth to twelfth bars using alternate tenth bar
TTITLE11=Playing of Chump Man Blues using alternate tenth bar
TTITLE12=Discussion about adding more double thumbing
TTITLE13=Playing of Chump Man Blues adding more double thumbing
TTITLE14=Discussion of combining different blues techniques
TTITLE15=Blind Blake performs Southern Rag
TTITLE16=Woody performs Southern Rag
TTITLE17=Introduction to Southern Rag
TTITLE18=Teaching of a typical Blind Blake riff (17th and 18th bars)
TTITLE19=Playing of 17th and 18th bars
TTITLE20=Teaching of Introduction
TTITLE21=Playing of Introduction
TTITLE22=Playing of Introduction faster
TTITLE23=Teaching of Verse
TTITLE24=Playing of Verse
TTITLE25=Continuing of teaching
TTITLE26=Playing of Introduction and Verse
TTITLE27=Woody performs O'Glory How Happy I Am
TTITLE28=Introduction to O'Glory How Happy I Am
TTITLE29=Tuning
TTITLE30=Discussion on brushing the bass
TTITLE31=Teaching of first two bars
TTITLE32=Playng of first two bars
TTITLE33=Teaching of third and fourth bars
TTITLE34=Playing of third and fourth bars
TTITLE35=Teaching of fifth bar
TTITLE36=Playing fifth and sixth bars
TTITLE37=Teaching of seventh and eights bars
TTITLE38=Playing of first eight bars
TTITLE39=Teaching of first two bars of the Chorus
TTITLE40=Playing of first two bars of the Chorus
TTITLE41=Playing of Verse and Chorus
TTITLE42=Closing thoughts
TTITLE43=Playing O'Glory How Happy I Am with syncopation
EXTD=
EXTT0=
EXTT1=
EXTT2=
EXTT3=
EXTT4=
EXTT5=
EXTT6=
EXTT7=
EXTT8=
EXTT9=
EXTT10=
EXTT11=
EXTT12=
EXTT13=
EXTT14=
EXTT15=
EXTT16=
EXTT17=
EXTT18=
EXTT19=
EXTT20=
EXTT21=
EXTT22=
EXTT23=
EXTT24=
EXTT25=
EXTT26=
EXTT27=
EXTT28=
EXTT29=
EXTT30=
EXTT31=
EXTT32=
EXTT33=
EXTT34=
EXTT35=
EXTT36=
EXTT37=
EXTT38=
EXTT39=
EXTT40=
EXTT41=
EXTT42=
EXTT43=
PLAYORDER=
